<svg xmlns="http://www.w3.org/2000/svg" xmlns:xlink="http://www.w3.org/1999/xlink" viewBox="0 0 192.13 163.13"><defs><style>.cls-1{fill:url(#linear-gradient);}.cls-2{fill:url(#linear-gradient-2);}.cls-3{fill:url(#linear-gradient-3);}</style><linearGradient id="linear-gradient" x1="91.46" y1="113.02" x2="88.56" y2="119.85" gradientUnits="userSpaceOnUse"><stop offset="0" stop-color="#783476"/><stop offset="0" stop-color="#783476"/><stop offset="0.32" stop-color="#653b76"/><stop offset="0.65" stop-color="#5a3f76"/><stop offset="1" stop-color="#564076"/></linearGradient><linearGradient id="linear-gradient-2" x1="136.87" y1="-13.55" x2="61.61" y2="163.76" xlink:href="#linear-gradient"/><linearGradient id="linear-gradient-3" x1="160.42" y1="142.74" x2="157.54" y2="149.53" xlink:href="#linear-gradient"/></defs><title>Asset 1</title><g id="Layer_2" data-name="Layer 2"><g id="Layer_1-2" data-name="Layer 1"><g id="_Group_" data-name="&lt;Group&gt;"><path id="_Path_" data-name="&lt;Path&gt;" class="cls-1" d="M90.07,112.75h-.22a3.61,3.61,0,0,0-3.6,3.7,3.8,3.8,0,0,0,3.82,3.7,3.7,3.7,0,1,0,0-7.41Z"/><path id="_Compound_Path_" data-name="&lt;Compound Path&gt;" class="cls-2" d="M180.57,58.88h-.67q0-22.46,0-44.93A14,14,0,0,0,166,0H14A14,14,0,0,0,0,14V119.29a14,14,0,0,0,14,14h58.6l-5.08,22.47H60.85a3.7,3.7,0,1,0,0,7.41h58.23a3.7,3.7,0,1,0,0-7.41h-6.63l-5.08-22.46h18.48v18.53a11.46,11.46,0,0,0,11.56,11.34h43.18a11.46,11.46,0,0,0,11.56-11.34V70.22A11.46,11.46,0,0,0,180.57,58.88ZM14,7.41H166A6.55,6.55,0,0,1,172.5,14l0,44.93H137.39a11.46,11.46,0,0,0-11.56,11.34V99.88H7.42V14A6.55,6.55,0,0,1,14,7.41Zm90.88,148.3H75.08l5.08-22.47H99.75Zm21-29.9H14a6.55,6.55,0,0,1-6.54-6.54v-12H125.84v18.53Zm58.9,26a4.1,4.1,0,0,1-4.14,3.93H137.39a4,4,0,0,1-4.14-3.93V70.22a4.1,4.1,0,0,1,4.14-3.93h43.18a4.1,4.1,0,0,1,4.14,3.93Z"/><path id="_Path_2" data-name="&lt;Path&gt;" class="cls-3" d="M156.38,143.43a3.83,3.83,0,0,0-1.08,2.69,3.67,3.67,0,0,0,3.69,3.7,3.49,3.49,0,0,0,2.54-1.07,3.45,3.45,0,0,0,1.15-2.62,3.53,3.53,0,0,0-1.08-2.61A4,4,0,0,0,156.38,143.43Z"/></g></g></g></svg>