<svg xmlns="http://www.w3.org/2000/svg" viewBox="0 0 121.8 80.72"><defs><style>.cls-1{fill:#7766ad;}</style></defs><title>Asset 1</title><g id="Layer_2" data-name="Layer 2"><g id="Isolation_Mode" data-name="Isolation Mode"><path class="cls-1" d="M23.14,68.65H14.47a2,2,0,0,1,0-4h8.67a2,2,0,0,1,0,4Z"/><path class="cls-1" d="M36.89,68.65H31.22a2,2,0,0,1,0-4h5.67a2,2,0,0,1,0,4Z"/><path class="cls-1" d="M114.8,0H21.7a7,7,0,0,0-7,7V8.26h4V7a3,3,0,0,1,3-3h93.1a3,3,0,0,1,3,3V60.46a3,3,0,0,1-3,3h-2.7v4h2.7a7,7,0,0,0,7-7V7A7,7,0,0,0,114.8,0Z"/><path class="cls-1" d="M100.1,80.72H7a7,7,0,0,1-7-7V20.26a7,7,0,0,1,7-7h93.1a7,7,0,0,1,7,7V73.72A7,7,0,0,1,100.1,80.72ZM7,17.26a3,3,0,0,0-3,3V73.72a3,3,0,0,0,3,3h93.1a3,3,0,0,0,3-3V20.26a3,3,0,0,0-3-3Z"/><rect class="cls-1" x="4" y="38.73" width="99.1" height="4"/><rect class="cls-1" x="4" y="27.73" width="99.1" height="4"/></g></g></svg>