<svg xmlns="http://www.w3.org/2000/svg" viewBox="0 0 120.33 96"><defs><style>.cls-1{fill:none;stroke:#7766ad;stroke-linecap:round;stroke-linejoin:round;stroke-width:4px;}</style></defs><title>Asset 1</title><g id="Layer_2" data-name="Layer 2"><g id="Communication_icons" data-name="Communication icons"><path class="cls-1" d="M81.23,10.75,75.31,46.29A5.72,5.72,0,0,1,70.62,51l-35.44,5.9"/><path class="cls-1" d="M58,24.72,79.48,3.19a4.08,4.08,0,0,1,5.77,0l31.89,31.89a4.08,4.08,0,0,1,0,5.77l-52,52a4.08,4.08,0,0,1-5.77,0L27.53,60.91a4.08,4.08,0,0,1,0-5.77L48.86,33.82"/><line class="cls-1" x1="63.24" y1="84.95" x2="65.07" y2="51.9"/><line class="cls-1" x1="109.38" y1="38.9" x2="76.23" y2="40.74"/><polyline class="cls-1" points="35.32 24.96 50.02 24.96 64.15 24.96"/><line class="cls-1" x1="25" y1="7.09" x2="49" y2="7.09"/><line class="cls-1" x1="2" y1="70.71" x2="25" y2="70.71"/><line class="cls-1" x1="10.25" y1="36.46" x2="25" y2="36.46"/></g></g></svg>