<svg xmlns="http://www.w3.org/2000/svg" viewBox="0 0 132.36 97"><defs><style>.cls-1{fill:#7d62a7;}.cls-2{fill:none;stroke:#7d62a7;stroke-linecap:round;stroke-linejoin:round;stroke-width:4px;}</style></defs><title>Asset 1</title><g id="Layer_2" data-name="Layer 2"><g id="Layer_1-2" data-name="Layer 1"><path class="cls-1" d="M120.65,97H11.71C4.92,97,0,87.79,0,81.58a2,2,0,0,1,2-2H46.52a2,2,0,0,1,1.56.75l2.17,2.72H82.1l2.18-2.72a2,2,0,0,1,1.56-.75h44.52a2,2,0,0,1,2,2C132.36,87.79,127.44,97,120.65,97ZM4.2,83.58C5,88,8.4,93,11.71,93H120.65c3.31,0,6.67-5,7.51-9.42H86.8L84.63,86.3a2,2,0,0,1-1.56.75H49.29a2,2,0,0,1-1.56-.75l-2.17-2.72Z"/><path class="cls-1" d="M84.36,69.35H48a7,7,0,0,1-7-7V7a7,7,0,0,1,7-7H84.36a7,7,0,0,1,7,7V62.35A7,7,0,0,1,84.36,69.35ZM48,4a3,3,0,0,0-3,3V62.35a3,3,0,0,0,3,3H84.36a3,3,0,0,0,3-3V7a3,3,0,0,0-3-3Z"/><path class="cls-1" d="M17.78,75.11V23.49H36.42v-4H15.78a2,2,0,0,0-2,2V75.11Z"/><path class="cls-1" d="M114.58,75.11h4V21.49a2,2,0,0,0-2-2H95.94v4h18.64Z"/><path class="cls-2" d="M66.6,16.49c-8.33,6.92-19.5,15.42-16.92,24.17,2.33,7.33,12.17,6,16.92.25"/><path class="cls-2" d="M66.62,16.49C75,23.4,86.12,31.9,83.54,40.65c-2.33,7.33-12.17,6-16.92.25"/><path class="cls-2" d="M57.47,52.13c9.15-3.89,9.15-3.87,9.15-3.87s0,0,9.81,3.87"/></g></g></svg>