<svg xmlns="http://www.w3.org/2000/svg" viewBox="0 0 132.36 97"><defs><style>.cls-1{fill:#7766ad;}</style></defs><title>Asset 1</title><g id="Layer_2" data-name="Layer 2"><g id="Isolation_Mode" data-name="Isolation Mode"><path class="cls-1" d="M120.65,97H11.71C4.92,97,0,87.79,0,81.58a2,2,0,0,1,2-2H46.52a2,2,0,0,1,1.56.75l2.17,2.72H82.1l2.18-2.72a2,2,0,0,1,1.56-.75h44.52a2,2,0,0,1,2,2C132.36,87.79,127.44,97,120.65,97ZM4.2,83.58C5,88,8.4,93,11.71,93H120.65c3.31,0,6.67-5,7.51-9.42H86.8L84.63,86.3a2,2,0,0,1-1.56.75H49.29a2,2,0,0,1-1.56-.75l-2.17-2.72Z"/><path class="cls-1" d="M84.36,69.35H48a7,7,0,0,1-7-7V7a7,7,0,0,1,7-7H84.36a7,7,0,0,1,7,7V62.35A7,7,0,0,1,84.36,69.35ZM48,4a3,3,0,0,0-3,3V62.35a3,3,0,0,0,3,3H84.36a3,3,0,0,0,3-3V7a3,3,0,0,0-3-3Z"/><path class="cls-1" d="M17.78,75.11V23.49H36.42v-4H15.78a2,2,0,0,0-2,2V75.11Z"/><path class="cls-1" d="M114.58,75.11h4V21.49a2,2,0,0,0-2-2H95.94v4h18.64Z"/><path class="cls-1" d="M75,46c-3.92,0-6.29-2.12-8.86-4.7C63.43,44,61.17,46,57.23,46c-3.52,0-8.49-2.94-8.49-9.49,0-5.33,12.34-17.13,16.12-20.62a1.81,1.81,0,0,1,2.47,0c3.78,3.57,16.11,15.6,16.11,20.61C83.44,43.06,78.48,46,75,46Zm-8.86-9.08h0a1.81,1.81,0,0,1,1.28.53l.71.72C70.9,41,72.37,42.39,75,42.39c1.26,0,4.87-1.08,4.87-5.87,0-2.23-6.91-10.19-13.74-16.8-6.82,6.46-13.72,14.38-13.72,16.8,0,5.62,4.82,5.87,4.87,5.87,2.59,0,4-1.28,6.84-4.18l.74-.74A1.81,1.81,0,0,1,66.09,36.93Z"/><path class="cls-1" d="M74.75,50.07l-7.89-3.7-.08,0-.16-.06-.18,0-.17,0h-.36l-.17,0-.18,0-.16.06-.08,0-7.89,3.7A1.81,1.81,0,0,0,59,53.35L66.09,50l7.13,3.34a1.81,1.81,0,0,0,1.53-3.28Z"/></g></g></svg>