<svg xmlns="http://www.w3.org/2000/svg" viewBox="0 0 80.04 82.31"><defs><style>.cls-1{fill:#7d62a7;}</style></defs><title>Asset 2</title><g id="Layer_2" data-name="Layer 2"><g id="Layer_1-2" data-name="Layer 1"><path id="_Path_" data-name="&lt;Path&gt;" class="cls-1" d="M18.64,68.25a22.19,22.19,0,0,1-4.21-.4A17.12,17.12,0,0,1,.92,55.71C-4.81,36.31,17.38,18,35.2,3.32L38.59.52a2.19,2.19,0,0,1,2.79,3.37L38,6.7C21.15,20.58.21,37.85,5.1,54.42a12.74,12.74,0,0,0,10.16,9.14C22.9,65,32.6,61.1,38.31,54.2A2.19,2.19,0,0,1,41.68,57C35.9,64,26.91,68.25,18.64,68.25Z"/><path id="_Path_2" data-name="&lt;Path&gt;" class="cls-1" d="M61.4,68.23c-8.27,0-17.27-4.28-23-11.27a2.19,2.19,0,0,1,3.37-2.78c5.71,6.91,15.4,10.83,23.05,9.37a12.76,12.76,0,0,0,10.17-9.18C79.83,37.83,58.88,20.55,42,6.67L38.64,3.87A2.19,2.19,0,0,1,41.44.5l3.38,2.8c17.83,14.7,40,33,34.3,52.35A17.14,17.14,0,0,1,65.61,67.84,22.19,22.19,0,0,1,61.4,68.23Z"/><path id="_Path_3" data-name="&lt;Path&gt;" class="cls-1" d="M61.49,82.31a2.18,2.18,0,0,1-.8-.15C46.34,76.47,41.61,74.62,40.07,74c-1.49.62-5.93,2.49-19.17,8.12a2.19,2.19,0,1,1-1.71-4l3.41-1.45,3-1.28,2.65-1.12,2.32-1,2-.84,1.71-.71,1.45-.59L37,70.66l1-.38c.47-.17.94-.37,1.42-.53a2.39,2.39,0,0,1,1.39.06c.46.12.91.29,1.36.44l1,.34,1.17.43,1.4.53,1.64.63,1.91.74,2.2.86,2.51,1,2.85,1.13L60,77.17l2.32.92a2.19,2.19,0,0,1-.8,4.22Z"/></g></g></svg>