<svg xmlns="http://www.w3.org/2000/svg" viewBox="0 0 97 97"><defs><style>.cls-1{fill:#7766ad;}</style></defs><title>Asset 1</title><g id="Layer_2" data-name="Layer 2"><g id="Isolation_Mode" data-name="Isolation Mode"><path class="cls-1" d="M48.5,16.76A31.74,31.74,0,1,0,80.24,48.5,31.77,31.77,0,0,0,48.5,16.76Zm0,59.48A27.74,27.74,0,1,1,76.24,48.5,27.77,27.77,0,0,1,48.5,76.24Z"/><path class="cls-1" d="M94,65.39l.16-.44q.33-.92.63-1.85l.08-.25q.35-1.11.64-2.23v0c.13-.53.27-1.06.38-1.59,0,0,0-.1,0-.15a48.27,48.27,0,0,0,0-20.72s0-.09,0-.14c-.11-.51-.24-1-.37-1.53l0-.09q-.29-1.11-.63-2.2l-.1-.3q-.29-.9-.61-1.79L94,31.59q-.33-.88-.69-1.75l-.12-.29A48.58,48.58,0,0,0,81.28,12.74a1.94,1.94,0,0,0-.26-.19A48.5,48.5,0,0,0,63.17,2.27l-.09,0C62.35,2,61.6,1.8,60.86,1.6l-.65-.16-1.4-.32L57.92.93,56.77.72Q55.68.53,54.58.4L54,.32,52.53.18l-.63,0L50.41,0h-.35c-.52,0-1,0-1.56,0s-1,0-1.56,0h-.35L45.1.13l-.63,0L43,.32,42.4.4q-1.09.14-2.16.32L39.08.93l-.88.19-1.41.33-.64.16c-.75.2-1.49.4-2.23.64l-.09,0A48.52,48.52,0,0,0,16,12.55a1.9,1.9,0,0,0-.26.19A48.51,48.51,0,0,0,6.5,24.25a49.05,49.05,0,0,0-2.64,5.3l-.12.29q-.36.87-.69,1.75l-.18.48q-.32.89-.61,1.79l-.1.3q-.34,1.09-.63,2.21l0,.08c-.13.51-.26,1-.37,1.54,0,0,0,.09,0,.14a48.24,48.24,0,0,0,0,20.73s0,.09,0,.14c.11.5.23,1,.36,1.48l0,.16q.28,1.1.62,2.18l.11.35q.28.88.59,1.75l.19.51q.32.86.68,1.71l.13.32q.9,2.12,2,4.15h0c.21.38.42.77.63,1.15a48.49,48.49,0,0,0,9.23,11.51,2.05,2.05,0,0,0,.3.23A48.51,48.51,0,0,0,33.83,94.73l.09,0c.75.24,1.5.45,2.26.64l.54.14,1.65.38.58.12c.72.14,1.44.28,2.17.39h0c.71.11,1.43.2,2.15.27l.67.06,1.62.12.67,0c.74,0,1.49.06,2.24.06s1.49,0,2.24-.06l.67,0L53,96.78l.66-.06q2.2-.23,4.37-.67l.54-.12q.85-.18,1.7-.39l.5-.13c.76-.2,1.52-.41,2.28-.65l.09,0A48.51,48.51,0,0,0,81,84.49a2,2,0,0,0,.3-.23A48.56,48.56,0,0,0,93.15,67.44l.11-.26C93.5,66.58,93.74,66,94,65.39ZM91.21,61q-.22.74-.46,1.47c-.11.33-.22.66-.33,1-.2.55-.41,1.1-.63,1.64-.1.24-.19.49-.29.73-.31.73-.64,1.44-1,2.15-.17.34-.35.68-.53,1s-.41.77-.62,1.15-.45.8-.68,1.19-.32.51-.48.77a44.77,44.77,0,0,1-6,7.64l-3.12-4.33a31.53,31.53,0,0,0,9-15.58l5.33.53Zm-6.48-5.32a2,2,0,0,0-2.15,1.55,28.63,28.63,0,0,1-9.51,16.48,2,2,0,0,0-.26,2.63l4.42,6.15a44.52,44.52,0,0,1-13.66,7.92l-3.13-6.93A2,2,0,0,0,58,82.36,31.79,31.79,0,0,1,48.5,84,31.78,31.78,0,0,1,39,82.36a2,2,0,0,0-2.41,1.09l-3.13,6.93a44.5,44.5,0,0,1-13.66-7.92L24.2,76.3a2,2,0,0,0-.26-2.63,28.63,28.63,0,0,1-9.52-16.48,2,2,0,0,0-2.15-1.55l-7.55.75a43.87,43.87,0,0,1,0-15.8l7.55.75h.2a2,2,0,0,0,1.95-1.56,28.62,28.62,0,0,1,9.51-16.48,2,2,0,0,0,.26-2.63l-4.42-6.15A44.5,44.5,0,0,1,33.45,6.63l3.13,6.93A2,2,0,0,0,39,14.64,31.77,31.77,0,0,1,48.5,13,31.78,31.78,0,0,1,58,14.64a2,2,0,0,0,2.41-1.09l3.13-6.93a44.5,44.5,0,0,1,13.67,7.92L72.8,20.7a2,2,0,0,0,.26,2.63,28.63,28.63,0,0,1,9.51,16.48,2,2,0,0,0,1.95,1.56h.2l7.56-.75a44,44,0,0,1,0,15.8Zm-25.11,36c-.81.21-1.63.39-2.45.55l-.71.13c-.65.12-1.3.22-2,.31l-.68.09q-1.09.13-2.19.21l-.42,0a45.1,45.1,0,0,1-5.43,0l-.4,0q-1.11-.08-2.21-.21l-.66-.08q-1-.13-2-.32l-.68-.12c-.83-.16-1.65-.35-2.47-.56l-.08,0,2.21-4.89a31.1,31.1,0,0,0,18,0l2.21,4.89ZM10.79,72.08c-.16-.26-.32-.51-.48-.77s-.46-.79-.68-1.19S9.21,69.35,9,69s-.36-.68-.52-1c-.35-.71-.68-1.43-1-2.16-.1-.22-.18-.45-.27-.68C7,64.54,6.78,64,6.57,63.39c-.11-.31-.21-.62-.31-.92-.17-.51-.33-1-.48-1.55l-.17-.59,5.33-.53a31.52,31.52,0,0,0,9,15.58l-3.12,4.33A44.77,44.77,0,0,1,10.79,72.08Zm-5-36q.23-.78.48-1.54c.1-.31.21-.62.31-.93.21-.58.43-1.15.66-1.72.09-.22.17-.45.26-.67.31-.73.64-1.45,1-2.16.17-.34.34-.68.52-1s.41-.78.62-1.16.45-.79.68-1.19.32-.51.48-.77a44.71,44.71,0,0,1,6-7.64l3.12,4.33a31.52,31.52,0,0,0-9,15.58l-5.33-.53ZM37.38,5.41C38.19,5.2,39,5,39.84,4.85l.69-.12q1-.18,2-.32l.66-.08q1.11-.13,2.22-.21l.39,0a45.55,45.55,0,0,1,5.44,0l.39,0q1.12.08,2.23.21l.65.08q1,.13,2,.32l.68.12c.83.16,1.65.35,2.47.56l.08,0L57.5,10.33a31.09,31.09,0,0,0-18,0L37.29,5.43ZM86.22,24.93c.16.25.32.51.48.77s.46.79.68,1.19.42.77.62,1.16.36.68.52,1c.35.71.68,1.43,1,2.16.1.23.18.47.28.7.23.56.44,1.12.65,1.69.11.31.22.63.32,1q.25.75.47,1.52l.17.61-5.33.53a31.51,31.51,0,0,0-9-15.58l3.12-4.34A44.83,44.83,0,0,1,86.22,24.93Z"/><path class="cls-1" d="M30.06,37.67a2,2,0,0,0-2,2V58a2,2,0,1,0,4,0V39.67A2,2,0,0,0,30.06,37.67Z"/><path class="cls-1" d="M43.14,37.17a7.92,7.92,0,0,0-7.91,7.92v7.5a7.92,7.92,0,0,0,15.83,0v-7.5A7.93,7.93,0,0,0,43.14,37.17Zm3.92,15.42a3.92,3.92,0,0,1-7.83,0v-7.5a3.92,3.92,0,0,1,7.83,0Z"/><path class="cls-1" d="M62.06,37.17a7.92,7.92,0,0,0-7.92,7.92v7.5a7.92,7.92,0,0,0,15.83,0v-7.5A7.93,7.93,0,0,0,62.06,37.17ZM66,52.59a3.92,3.92,0,0,1-7.83,0v-7.5a3.92,3.92,0,0,1,7.83,0Z"/></g></g></svg>