<svg xmlns="http://www.w3.org/2000/svg" viewBox="0 0 114.29 100"><defs><style>.cls-1{fill:none;stroke:#7766ad;stroke-linecap:round;stroke-linejoin:round;stroke-width:4px;}</style></defs><title>Asset 1</title><g id="Layer_2" data-name="Layer 2"><g id="Ñëîé_1" data-name="Ñëîé 1"><polyline class="cls-1" points="97.93 62.39 88.39 98 20.08 79.7"/><polyline class="cls-1" points="71.73 46.47 107.38 56.02 112.29 37.7 29.52 15.52 24.62 33.84 60.27 43.4"/><line class="cls-1" x1="48.5" y1="87.31" x2="65.18" y2="25.08"/><line class="cls-1" x1="76.63" y1="28.14" x2="59.96" y2="90.38"/><path class="cls-1" d="M70.89,26.6C49.42,20.85,50.15,6.5,53.09,3.59,58.17-1.42,76.63,5.19,70.89,26.6Z"/><path class="cls-1" d="M70.89,26.6c21.47,5.75,28-7,26.92-11C95.92,8.7,76.63,5.19,70.89,26.6Z"/><line class="cls-1" x1="2" y1="68.52" x2="31.65" y2="68.52"/><line class="cls-1" x1="21.15" y1="56.46" x2="38.55" y2="56.46"/><line class="cls-1" x1="11.34" y1="44.11" x2="28.25" y2="44.11"/></g></g></svg>