<svg xmlns="http://www.w3.org/2000/svg" viewBox="0 0 44 44"><defs><style>.cls-1{fill:none;stroke:#7766ad;stroke-linecap:round;stroke-linejoin:round;stroke-width:2px;}</style></defs><title>Asset 1</title><g id="Layer_2" data-name="Layer 2"><g id="Law_icons" data-name="Law icons"><path class="cls-1" d="M39,1H10A3,3,0,0,0,7,4V33"/><line class="cls-1" x1="32" y1="43" x2="5" y2="43"/><path class="cls-1" d="M40,7h3V4a3,3,0,0,0-3-3H39a3,3,0,0,0-3,3V40a3,3,0,0,1-3,3H32a3,3,0,0,1-3-3V37H1v3a3,3,0,0,0,3,3H5"/><line class="cls-1" x1="17" y1="8" x2="26" y2="8"/><line class="cls-1" x1="14" y1="15" x2="29" y2="15"/><line class="cls-1" x1="14" y1="21" x2="29" y2="21"/><line class="cls-1" x1="14" y1="27" x2="29" y2="27"/></g></g></svg>