<svg xmlns="http://www.w3.org/2000/svg" viewBox="0 0 114.44 84.21"><defs><style>.cls-1{fill:#7766ad;}</style></defs><title>Asset 1</title><g id="Layer_2" data-name="Layer 2"><g id="Isolation_Mode" data-name="Isolation Mode"><path class="cls-1" d="M94.43,84.21H20a2,2,0,0,1-2-1.59L7,29.45a12.07,12.07,0,1,1,15-4.08c5.52,13.16,13.69,26.94,17.68,26.94,3.56,0,7.93-16.12,9.77-31A12.07,12.07,0,1,1,65,21.3c2.11,16.65,6.61,31,9.77,31,3.91,0,12.09-13.79,17.67-26.95a12.07,12.07,0,1,1,15,4.08l-11,53.16A2,2,0,0,1,94.43,84.21Zm-72.8-4H92.81L103.72,27.6a2,2,0,0,1,1.3-1.48,8.07,8.07,0,1,0-8.76-2.35,2,2,0,0,1,.33,2.07c-3,7.15-13.3,30.48-21.81,30.48-4.43,0-7.87-5.88-10.84-18.5-2-8.49-3-16.83-3-17.18a2,2,0,0,1,.86-1.89,8.07,8.07,0,1,0-9.07,0,2,2,0,0,1,.86,1.88c-1,8.37-4.82,35.69-13.88,35.69-8.88,0-19.73-25.4-21.82-30.49a2,2,0,0,1,.33-2.06,8.07,8.07,0,1,0-8.76,2.35,2,2,0,0,1,1.3,1.48Z"/><path class="cls-1" d="M94.91,70.08H81.44a2,2,0,0,1,0-4H94.91a2,2,0,0,1,0,4Z"/><path class="cls-1" d="M67.06,70.08H19.56a2,2,0,1,1,0-4H67.06a2,2,0,0,1,0,4Z"/></g></g></svg>